<svg xmlns="http://www.w3.org/2000/svg" width="64" height="24" viewBox="0 0 48 18">
  <g fill="none" fill-rule="evenodd">
    <rect width="48" height="18"/>
    <path fill="#FFF" d="M24.9312722,5.14278947 L24.9312722,8.96598947 L26.991486,8.96598947 C28.5006414,8.96598947 29.254914,8.35278947 29.254914,7.12578947 L29.254914,6.86898947 C29.254914,6.27918947 29.0736689,5.84418947 28.7105684,5.56338947 C28.3480782,5.28258947 27.8281427,5.14278947 27.1513722,5.14278947 L24.9312722,5.14278947 Z M23.4947368,3.91578947 L27.2307051,3.91578947 C27.8189889,3.91578947 28.3309911,3.98958947 28.7654912,4.13658947 C29.199381,4.28418947 29.5594302,4.48878947 29.8444183,4.75038947 C30.1287962,5.01198947 30.3411642,5.32338947 30.4815224,5.68458947 C30.6212703,6.04638947 30.6908391,6.43578947 30.6908391,6.85458947 L30.6908391,7.15458947 C30.6908391,7.57278947 30.6163882,7.96518947 30.4668763,8.33058947 C30.3173643,8.69718947 30.0976733,9.01818947 29.8084134,9.29418947 C29.5191535,9.57018947 29.1597146,9.78858947 28.7307068,9.95058947 C28.3004785,10.1119895 27.8012916,10.1929895 27.2325359,10.1929895 L24.9312722,10.1929895 L24.9312722,14.2015895 L23.4947368,14.2015895 L23.4947368,3.91578947 Z M37.2092555,10.2674842 L35.2210515,10.2674842 C34.6699932,10.2674842 34.2751595,10.3724842 34.0389917,10.5812842 C33.8016033,10.7906842 33.6832142,11.0804842 33.6832142,11.4518842 L33.6832142,11.6516842 C33.6832142,12.0314842 33.8186904,12.3074842 34.0896427,12.4790842 C34.3599847,12.6500842 34.684029,12.7352842 35.0611653,12.7352842 C35.4102299,12.7352842 35.7123051,12.6950842 35.9686113,12.6140842 C36.2249176,12.5336842 36.4592547,12.4124842 36.6722329,12.2504842 C36.8656831,12.1076842 37.0036003,11.9438842 37.0859844,11.7578842 C37.1683686,11.5730842 37.2092555,11.3324842 37.2092555,11.0378842 L37.2092555,10.2674842 Z M34.9165353,13.9334842 C34.1134425,13.9334842 33.477559,13.7390842 33.0082745,13.3490842 C32.5396003,12.9590842 32.3052632,12.4220842 32.3052632,11.7368842 L32.3052632,11.3516842 C32.3052632,10.6856842 32.5322772,10.1438842 32.9869157,9.72568421 C33.4409438,9.30688421 34.1762986,9.09748421 35.1923697,9.09748421 L37.2092555,9.09748421 L37.2092555,8.64088421 C37.2092555,8.11828421 37.0804921,7.73008421 36.8241859,7.47868421 C36.5678797,7.22668421 36.1504667,7.10068421 35.5695059,7.10068421 C35.1051035,7.10068421 34.7017263,7.17148421 34.3581539,7.31428421 C34.0145815,7.45648421 33.6594144,7.64728421 33.2914319,7.88488421 L32.594523,6.85768421 C32.9820336,6.59188421 33.417144,6.36088421 33.9010745,6.16588421 C34.3843948,5.97088421 34.9458275,5.87368421 35.584152,5.87368421 C36.0284161,5.87368421 36.4348446,5.92828421 36.8028271,6.03748421 C37.1708096,6.14728421 37.4869206,6.30808421 37.7536011,6.52288421 C38.0190611,6.73648421 38.2271573,6.99808421 38.3772796,7.30708421 C38.5267915,7.61608421 38.6018526,7.96588421 38.6018526,8.35528421 L38.6018526,13.8194842 L37.2525835,13.8194842 L37.2525835,12.8786842 L37.2379374,12.8786842 C37.1604353,13.0208842 37.0566923,13.1522842 36.9260982,13.2704842 C36.795504,13.3892842 36.6527049,13.4918842 36.4983109,13.5776842 C36.2847224,13.6910842 36.0552673,13.7792842 35.8087251,13.8410842 C35.5621829,13.9034842 35.2643795,13.9334842 34.9165353,13.9334842 Z M42.843212,12.1082842 L44.932718,5.87368421 L46.4131915,5.87368421 L42.2921537,16.9016842 L41.0155046,16.4594842 L42.0450012,13.7918842 L39.1578947,5.87368421 L40.6816962,5.87368421 L42.785238,12.1082842 L42.843212,12.1082842 Z M13.4636982,13 L13.4636982,5 L10.4751639,5 L10.4751639,9.14068303 L7.60809061,5 L4.57689679,5 L4.57689679,13 L7.56661611,13 L7.56661611,8.85931697 L10.4336894,13 L13.4636982,13 Z M3.73034936e-14,18 L3.73034936e-14,-1.72306613e-13 L18,-1.72306613e-13 L18,18 L3.73034936e-14,18 Z"/>
  </g>
</svg>
